<?xml version="1.0" encoding="utf-8"?>
<!-- Generator: Adobe Illustrator 24.0.0, SVG Export Plug-In . SVG Version: 6.00 Build 0)  -->
<svg version="1.1" xmlns="http://www.w3.org/2000/svg" xmlns:xlink="http://www.w3.org/1999/xlink" x="0px" y="0px"
	 viewBox="0 0 1280.17 875.32" style="enable-background:new 0 0 1280.17 875.32;" xml:space="preserve">
<style type="text/css">
	.st0{fill:#27306E;}
	.st1{fill:#FFCB05;}
	.st2{fill:#4D4D4D;}
	.st3{display:none;}
	.st4{display:inline;fill-rule:evenodd;clip-rule:evenodd;fill:none;stroke:#000000;stroke-width:0.05;stroke-miterlimit:10;}
	.st5{display:inline;}
	.st6{fill-rule:evenodd;clip-rule:evenodd;fill:none;stroke:#000000;stroke-width:0.05;stroke-miterlimit:10;}
	.st7{display:inline;fill:none;stroke:#000000;stroke-width:0.05;stroke-miterlimit:10;}
	.st8{fill:none;stroke:#000000;stroke-width:0.05;stroke-miterlimit:10;}
</style>
<g id="Layer_3">
</g>
<g id="Layer_4">
	<g>
		<path class="st0" d="M228.23,584.63h14.33v76h-14.33V584.63z"/>
		<path class="st0" d="M344.46,584.63h71.62v12.61h-28.67v63.39h-14.28v-63.39h-28.67V584.63z"/>
		<path class="st0" d="M430.41,584.63h64.27v12.41h-49.94v20.43h44.37l0.01,12.07h-44.38v18.67h49.94v12.41h-64.27V584.63z"/>
		<path class="st0" d="M509.02,584.63h43.39c8.71,0,15.56,2,20.55,6.01c4.99,3.91,7.48,9.35,7.48,16.32
			c0,5.64-1.65,10.31-4.94,14.03c-3.29,3.72-7.92,6.14-13.89,7.28L586,660.63h-17.66l-22.73-30.74h-19.09l-0.01-12.41h27.41
			c3.82,0,6.8-0.9,8.95-2.71c2.15-1.81,3.23-4.31,3.23-7.5c0-3.16-1.07-5.67-3.2-7.53c-2.14-1.86-5.03-2.79-8.68-2.79h-30.87v63.68
			h-14.33V584.63z"/>
		<path class="st0" d="M860.67,584.63H875v76h-14.33V584.63z"/>
		<path class="st0" d="M901.76,650.11c-8.28-6.98-12.43-16.13-12.43-27.45c0-11.35,4.14-20.52,12.43-27.5
			c8.35-7.01,19.11-10.52,32.29-10.52c13.14,0,23.89,3.51,32.24,10.52c8.28,6.98,12.43,16.15,12.43,27.5
			c0,11.32-4.14,20.47-12.43,27.45c-8.35,7.01-19.1,10.52-32.24,10.52C920.87,660.63,910.11,657.12,901.76,650.11z M933.95,648.3
			c8.87,0,16.11-2.38,21.72-7.15c5.54-4.7,8.32-10.86,8.32-18.5c0-7.67-2.77-13.85-8.32-18.55c-5.61-4.76-12.85-7.15-21.72-7.15
			c-8.84,0-16.06,2.38-21.67,7.15c-5.45,4.63-8.17,10.81-8.17,18.55c0,7.7,2.72,13.87,8.17,18.5
			C917.89,645.92,925.11,648.3,933.95,648.3z"/>
		<path class="st0" d="M993.05,584.63h13.4l45.89,53.86v-53.86h13.94v76h-11.94l-47.35-55.47v55.47h-13.94V584.63z"/>
		<path class="st0" d="M256.9,584.63h13.4l45.89,53.86v-53.86h13.94v76h-11.94l-47.35-55.47v55.47H256.9V584.63z"/>
		<path class="st0" d="M594.77,584.63h13.4l45.89,53.86v-53.86H668v76h-11.94l-47.35-55.47v55.47h-13.94V584.63z"/>
		<path class="st0" d="M705.18,643.81l-7.73,16.82h-15.12l35.37-76h17.02l35.47,76h-15.65l-7.88-16.82h-37.71l5.26-12.49h27.31
			l-15.61-33.95l-15.48,33.95"/>
		<path class="st0" d="M1103.46,643.81l-7.73,16.82h-15.12l35.37-76h17.02l35.47,76h-15.65l-7.88-16.82h-37.71l5.26-12.49h27.31
			l-15.61-33.95l-15.48,33.95"/>
		<path class="st0" d="M134.55,643.81l-7.73,16.82H111.7l35.37-76h17.02l35.47,76H183.9l-7.88-16.82h-37.71l5.26-12.49h27.31
			l-15.61-33.95l-15.48,33.95"/>
		<path class="st0" d="M1182.81,584.63h14.33v63.49h48.03v12.51h-62.37V584.63z"/>
		<path class="st0" d="M35,584.63h14.33v63.49h48.03v12.51H35V584.63z"/>
		<g>
			<path class="st0" d="M816.43,648.3c-8.84,0-16.06-2.38-21.67-7.15c-5.45-4.63-8.17-10.8-8.17-18.5c0-7.73,2.72-13.91,8.17-18.55
				c5.61-4.76,12.83-7.15,21.67-7.15c8.11,0,14.84,2.02,20.23,6l9.68-9.68c-7.97-5.76-17.91-8.65-29.81-8.65
				c-13.18,0-23.94,3.51-32.29,10.52c-8.28,6.98-12.43,16.15-12.43,27.5c0,11.32,4.14,20.47,12.43,27.45
				c8.35,7.01,19.11,10.52,32.29,10.52c11.88,0,21.79-2.88,29.76-8.61l-9.68-9.68C831.22,646.3,824.51,648.3,816.43,648.3z"/>
		</g>
	</g>
	<g>
		<path class="st1" d="M928.75,175.34c-5.66-17.29-13.61-33.65-23.71-48.9c3.15,6.71,5.91,13.58,8.25,20.63
			c8.65,26.08,11.36,53.31,8.04,80.91c-3.14,26.19-11.62,52.03-25.2,76.8c-35.85,65.41-103.61,116.85-185.91,141.13
			c-15.37,4.53-31.13,8.07-46.83,10.52c-8.97,1.4-18.07,2.46-27.06,3.16c-30.08,2.35-59.8,0.79-88.34-4.63
			c-28.5-5.41-55.17-14.55-79.25-27.16c-24.89-13.03-46.41-29.43-63.94-48.76c-18.51-20.4-32.15-43.56-40.54-68.85
			c-8.65-26.08-11.36-53.31-8.04-80.91c1.11-9.26,2.9-18.48,5.34-27.62c-8.31,19.74-13.72,39.97-16.11,60.42
			c-3.44,29.37-0.56,58.34,8.53,86.11c8.82,26.92,23.13,51.59,42.55,73.31c18.39,20.59,40.95,38.07,67.03,51.97
			c25.24,13.44,53.18,23.2,83.04,29c29.89,5.81,61.02,7.5,92.52,5.04c9.41-0.73,18.94-1.86,28.33-3.33
			c16.44-2.58,32.93-6.33,49.03-11.13c86.16-25.72,157.05-80.37,194.51-149.93c14.19-26.34,23.03-53.83,26.29-81.69
			C940.72,232.08,937.85,203.11,928.75,175.34z"/>
	</g>
	<g>
		<path class="st1" d="M875.66,158.78c-2.04-6.14-4.46-12.09-7.23-17.84c3.36,16.41,4.05,33.24,2.01,50.24
			c-2.64,21.95-9.73,43.59-21.08,64.31c-29.75,54.29-85.86,96.94-153.92,117.02c-12.68,3.74-25.68,6.66-38.64,8.68
			c-7.4,1.15-14.92,2.03-22.35,2.61c-24.87,1.94-49.46,0.65-73.07-3.83c-23.66-4.49-45.81-12.09-65.84-22.57
			c-20.79-10.88-38.78-24.6-53.47-40.79c-15.56-17.14-27.03-36.62-34.08-57.9c-5.26-15.86-7.89-32.21-7.91-48.82
			c-7.96,29.17-7.87,59.43,1.82,88.64c27.62,83.25,124.38,131.7,231.5,123.34c7.93-0.62,15.9-1.55,23.92-2.8
			c13.78-2.15,27.68-5.25,41.53-9.33C829.68,371.13,908.84,258.78,875.66,158.78z"/>
	</g>
	<path class="st1" d="M640.17,35.75c86.01-6.72,163.7,32.19,185.88,99.04c26.64,80.3-36.93,170.52-141.98,201.51
		c-11.12,3.28-22.28,5.77-33.35,7.5c-6.44,1-12.84,1.75-19.21,2.25c-86.02,6.72-163.71-32.19-185.89-99.04
		C418.98,166.7,482.54,76.48,587.6,45.49c11.12-3.28,22.29-5.77,33.35-7.5c0.01,0,0.01,0,0.02,0
		C627.4,36.99,633.8,36.25,640.17,35.75 M670.11,291.37c-5.5,0.86-11.09,1.51-16.59,1.94c-72.56,5.67-135.09-26.13-152.08-77.33
		c-8.37-25.22-5.14-52.52,9.34-78.93c3.1-5.65,6.69-11.19,10.74-16.57c-12.99,11.67-23.68,24.86-31.26,38.7
		c-14.1,25.72-17.24,52.3-9.1,76.85c16.54,49.85,77.42,80.8,148.06,75.29c5.36-0.42,10.8-1.05,16.16-1.89
		c9.43-1.47,18.91-3.6,28.18-6.33c24.7-7.29,46.92-18.4,66.05-33.03c2.27-1.74,4.49-3.53,6.65-5.35
		c-14.48,8.41-30.27,15.16-47.21,20.16C689.54,287.67,679.8,289.86,670.11,291.37z"/>
	<g>
		<path class="st0" d="M188.56,690.63h35.56c11.61,0,21.01,3.52,28.21,10.55c7.13,6.97,10.7,16.16,10.7,27.58
			c0,11.35-3.53,20.53-10.6,27.53c-6.97,6.9-16.27,10.35-27.91,10.35h-35.95V690.63z M199.61,700.57v56.12h23.92
			c8.68,0,15.62-2.53,20.81-7.59c5.26-5.13,7.89-11.91,7.89-20.34c0-8.49-2.7-15.29-8.09-20.39c-5.39-5.2-12.4-7.8-21.01-7.8H199.61
			z"/>
		<path class="st0" d="M487.11,697.44l-3.95,9.37c-9.44-4.37-19.1-6.56-29-6.56c-14.4,0-21.6,3.63-21.6,10.9
			c0,5.56,4.82,8.96,14.45,10.21l19.58,2.42c15.49,1.94,23.23,8.98,23.23,21.11c0,14.5-10.82,21.75-32.45,21.75
			c-13.38,0-25.86-2.63-37.43-7.89l4.14-10.11c11.44,5.39,22.72,8.09,33.83,8.09c14.01,0,21.01-3.81,21.01-11.44
			c0-6.05-5.1-9.68-15.29-10.9l-19.38-2.32c-7.33-0.85-12.95-3.05-16.87-6.58c-3.91-3.53-5.87-8.14-5.87-13.83
			c0-6.71,2.81-11.89,8.43-15.53c5.62-3.65,13.66-5.47,24.12-5.47C465.67,690.63,476.69,692.9,487.11,697.44z"/>
		<path class="st0" d="M518.49,690.63h63.03v9.62h-51.98v24.66h46.16l0,9.32h-46.16v22.78h51.98v9.62h-63.03V690.63z"/>
		<path class="st0" d="M291.69,690.63h60.21v9.62h-49.17v24.66h46.16l-3.85,9.32h-42.31v22.78h51.98v9.62h-63.03V690.63z"/>
		<path class="st0" d="M689.33,724.47v34.58c-10.69,5.06-22,7.58-33.93,7.58c-13.74,0-24.72-3.43-32.94-10.29
			c-8.12-6.9-12.18-16.19-12.18-27.88c0-11.69,4.14-20.9,12.43-27.63c8.35-6.8,19.59-10.2,33.73-10.2c9.93,0,20.53,2.09,31.81,6.25
			l-4.04,9.61c-9.21-4.1-18.36-6.16-27.47-6.16c-10.78,0-19.38,2.53-25.79,7.58c-6.25,4.93-9.37,11.71-9.37,20.34
			c0,8.67,3.09,15.56,9.27,20.69c6.25,5.12,14.63,7.68,25.15,7.68c7.66,0,15.17-1.35,22.54-4.04v-18.67h-28.16l0.02-9.46H689.33z"/>
		<path class="st0" d="M717.49,690.63h11v42.81c0,7.19,2.21,12.87,6.63,17.04c4.42,4.18,10.4,6.27,17.93,6.27
			c7.63,0,13.64-2.09,18.05-6.27c4.5-4.18,6.76-9.86,6.76-17.04v-42.81h10.95v44.47c0,9.69-3.21,17.4-9.62,23.11
			c-6.31,5.61-14.96,8.42-25.94,8.42c-11.15,0-19.87-2.81-26.19-8.42c-6.38-5.68-9.57-13.38-9.57-23.11V690.63z"/>
		<path class="st0" d="M817.33,690.63h42.36c8.02,0,14.38,2.06,19.08,6.17c4.83,4.04,7.25,9.4,7.25,16.08
			c0,5.62-1.76,10.29-5.28,14.01c-3.52,3.72-8.35,6.05-14.5,7l24.96,32.75h-13.76l-23.82-31.76h-22.09v-9.57h28.75
			c4.47,0,8.06-1.13,10.78-3.38c2.71-2.25,4.07-5.24,4.07-8.95c0-3.78-1.32-6.85-3.95-9.2c-2.63-2.35-6.07-3.53-10.31-3.53h-32.5
			v66.38h-11.05V690.63z"/>
		<path class="st0" d="M958.07,690.63c12.59,0,23,3.58,31.22,10.75c8.15,7.04,12.23,16.13,12.23,27.27
			c0,11.11-4.08,20.24-12.23,27.37c-8.22,7.07-18.62,10.6-31.22,10.6c-12.66,0-23.1-3.53-31.32-10.6
			c-8.06-7.13-12.08-16.26-12.08-27.37c0-11.15,4.03-20.24,12.08-27.27C934.97,694.22,945.41,690.63,958.07,690.63z M934.84,708.24
			c-5.92,5.2-8.88,12-8.88,20.42c0,8.38,2.96,15.17,8.88,20.37c6.02,5.26,13.76,7.89,23.23,7.89c9.4,0,17.11-2.63,23.13-7.89
			c6.02-5.26,9.03-12.05,9.03-20.37c0-8.35-3.01-15.16-9.03-20.42c-6.02-5.26-13.73-7.89-23.13-7.89
			C948.6,700.35,940.86,702.98,934.84,708.24z"/>
		<path class="st0" d="M1088.9,697.44l-3.95,9.37c-9.44-4.37-19.1-6.56-29-6.56c-14.4,0-21.6,3.63-21.6,10.9
			c0,5.56,4.82,8.96,14.45,10.21l19.58,2.42c15.49,1.94,23.23,8.98,23.23,21.11c0,14.5-10.82,21.75-32.45,21.75
			c-13.38,0-25.86-2.63-37.43-7.89l4.14-10.11c11.44,5.39,22.72,8.09,33.83,8.09c14.01,0,21.01-3.81,21.01-11.44
			c0-6.05-5.1-9.68-15.29-10.9l-19.38-2.32c-7.33-0.85-12.95-3.05-16.87-6.58c-3.91-3.53-5.87-8.14-5.87-13.83
			c0-6.71,2.81-11.89,8.43-15.53c5.62-3.65,13.66-5.47,24.12-5.47C1067.47,690.63,1078.48,692.9,1088.9,697.44z"/>
	</g>
</g>
<g id="Layer_2" class="st3">
</g>
</svg>
